<?xml version="1.0" encoding="UTF-8" standalone="no"?>
<svg
   xmlns:dc="http://purl.org/dc/elements/1.1/"
   xmlns:cc="http://creativecommons.org/ns#"
   xmlns:rdf="http://www.w3.org/1999/02/22-rdf-syntax-ns#"
   xmlns:svg="http://www.w3.org/2000/svg"
   xmlns="http://www.w3.org/2000/svg"
   xmlns:sodipodi="http://sodipodi.sourceforge.net/DTD/sodipodi-0.dtd"
   xmlns:inkscape="http://www.inkscape.org/namespaces/inkscape"
   height="384.20001"
   id="Layer_1"
   version="1.1"
   viewBox="0 0 384 384.20001"
   width="384"
   xml:space="preserve"
   sodipodi:docname="close.svg"
   inkscape:version="0.92.3 (2405546, 2018-03-11)"><metadata
     id="metadata3721"><rdf:RDF><cc:Work
         rdf:about=""><dc:format>image/svg+xml</dc:format><dc:type
           rdf:resource="http://purl.org/dc/dcmitype/StillImage" /></cc:Work></rdf:RDF></metadata><defs
     id="defs3719" /><sodipodi:namedview
     pagecolor="#ffffff"
     bordercolor="#666666"
     borderopacity="1"
     objecttolerance="10"
     gridtolerance="10"
     guidetolerance="10"
     inkscape:pageopacity="0"
     inkscape:pageshadow="2"
     inkscape:window-width="1920"
     inkscape:window-height="1027"
     id="namedview3717"
     showgrid="false"
     inkscape:zoom="0.4609375"
     inkscape:cx="192.05"
     inkscape:cy="192.4"
     inkscape:window-x="-8"
     inkscape:window-y="-8"
     inkscape:window-maximized="1"
     inkscape:current-layer="Layer_1" /><path
     d="m 379.65,322.9 -131.2,-131.7 131.5,-130 c 5.4,-5.4 5.4,-14.2 0,-19.6 L 342.55,4 c -2.6,-2.6 -6.1,-4 -9.8,-4 -3.7,0 -7.2,1.5 -9.8,4 L 192.05,133.6 60.95,4.1 c -2.6,-2.6 -6.1,-4 -9.8,-4 -3.7,0 -7.2,1.5 -9.8,4 L 4.05,41.7 c -5.4,5.4 -5.4,14.2 0,19.6 l 131.5,130 -131.1,131.6 c -2.6,2.6 -4.1,6.1 -4.1,9.8 0,3.7 1.4,7.2 4.1,9.8 l 37.4,37.6 c 2.7,2.7 6.2,4.1 9.8,4.1 3.5,0 7.1,-1.3 9.8,-4.1 L 192.05,248.9 322.75,380 c 2.7,2.7 6.2,4.1 9.8,4.1 3.5,0 7.1,-1.3 9.8,-4.1 l 37.4,-37.6 c 2.6,-2.6 4.1,-6.1 4.1,-9.8 -0.1,-3.6 -1.6,-7.1 -4.2,-9.7 z"
     id="path3714"
     inkscape:connector-curvature="0"
     style="fill:#ffffff" /></svg>